<svg width="26" height="27" xmlns="http://www.w3.org/2000/svg" xmlns:xlink="http://www.w3.org/1999/xlink" xml:space="preserve" overflow="hidden"><g transform="translate(-324 -291)"><path d="M5.41667 3.79167 3.79167 3.79167 3.79167 22.2083 22.2083 22.2083 22.2083 20.5833 5.41667 20.5833Z" transform="matrix(1 0 0 1.03846 324 291)"/><path d="M7.04167 9.47917 10.0208 9.47917 10.0208 18.9583 7.04167 18.9583Z" transform="matrix(1 0 0 1.03846 324 291)"/><path d="M11.1042 3.79167 14.0833 3.79167 14.0833 18.9583 11.1042 18.9583Z" transform="matrix(1 0 0 1.03846 324 291)"/><path d="M15.1667 9.47917 18.1458 9.47917 18.1458 18.9583 15.1667 18.9583Z" transform="matrix(1 0 0 1.03846 324 291)"/><path d="M19.2292 14.0833 22.2083 14.0833 22.2083 18.9583 19.2292 18.9583Z" transform="matrix(1 0 0 1.03846 324 291)"/></g></svg>