<svg width="26" height="26" xmlns="http://www.w3.org/2000/svg" xmlns:xlink="http://www.w3.org/1999/xlink" xml:space="preserve" overflow="hidden"><g transform="translate(-507 -290)"><path d="M514.516 300.451C516.36 299.846 518.381 300.117 520 301.188 521.619 300.117 523.64 299.846 525.484 300.451 525.528 300.183 525.55 299.911 525.552 299.639 525.552 296.573 523.066 294.087 520 294.087 516.934 294.087 514.448 296.573 514.448 299.639 514.45 299.911 514.472 300.183 514.516 300.451Z"/><path d="M526.061 301.575C525.525 303.237 524.332 304.607 522.76 305.367 522.826 305.739 522.86 306.116 522.86 306.494 522.86 308.324 522.07 310.066 520.693 311.271 521.543 311.778 522.515 312.046 523.505 312.046 526.569 312.047 529.055 309.563 529.056 306.499 529.057 304.425 527.902 302.524 526.061 301.57Z"/><path d="M521.806 304.896C521.487 303.834 520.858 302.891 520 302.188 519.142 302.891 518.513 303.834 518.194 304.896 519.363 305.304 520.637 305.304 521.806 304.896Z"/><path d="M516.495 312.051C517.485 312.051 518.457 311.784 519.307 311.277 517.93 310.071 517.14 308.33 517.14 306.499 517.14 306.121 517.174 305.744 517.24 305.372 515.668 304.612 514.475 303.242 513.939 301.581 511.218 302.992 510.156 306.341 511.567 309.062 512.521 310.902 514.422 312.057 516.495 312.057Z"/><path d="M520 310.8C521.296 309.748 522.048 308.168 522.047 306.499 522.045 306.227 522.023 305.956 521.982 305.687 520.695 306.109 519.305 306.109 518.018 305.687 517.977 305.956 517.955 306.227 517.953 306.499 517.952 308.168 518.704 309.748 520 310.8Z"/><path d="M525.311 301.253C523.783 300.723 522.098 300.894 520.707 301.719 521.574 302.48 522.218 303.462 522.57 304.56 523.889 303.868 524.876 302.677 525.311 301.253Z"/><path d="M516.495 300.947C515.88 300.948 515.27 301.052 514.689 301.253 515.128 302.68 516.12 303.871 517.443 304.56 517.796 303.462 518.44 302.48 519.307 301.719 518.456 301.214 517.485 300.947 516.495 300.947Z"/></g></svg>