<svg width="26" height="27" xmlns="http://www.w3.org/2000/svg" xmlns:xlink="http://www.w3.org/1999/xlink" xml:space="preserve" overflow="hidden"><g transform="translate(-137 -290)"><path d="M22.2083 10.2917 16.7917 10.2917 16.7917 7.04167 22.2083 7.04167 22.2083 10.2917ZM22.2083 14.625 16.7917 14.625 16.7917 11.375 22.2083 11.375 22.2083 14.625ZM22.2083 18.9583 16.7917 18.9583 16.7917 15.7083 22.2083 15.7083 22.2083 18.9583ZM10.2917 18.9583 10.2917 15.7083 15.7083 15.7083 15.7083 18.9583 10.2917 18.9583ZM3.79167 18.9583 3.79167 15.7083 9.20833 15.7083 9.20833 18.9583 3.79167 18.9583ZM3.79167 11.375 9.20833 11.375 9.20833 14.625 3.79167 14.625 3.79167 11.375ZM3.79167 7.04167 9.20833 7.04167 9.20833 10.2917 3.79167 10.2917 3.79167 7.04167ZM15.7083 11.375 15.7083 14.625 10.2917 14.625 10.2917 11.375 15.7083 11.375ZM15.7083 7.04167 15.7083 10.2917 10.2917 10.2917 10.2917 7.04167 15.7083 7.04167ZM2.16667 5.41667 2.16667 20.5833 23.8333 20.5833 23.8333 5.41667 2.16667 5.41667Z" transform="matrix(1 0 0 1.03846 137 290)"/></g></svg>