<svg width="23" height="23" xmlns="http://www.w3.org/2000/svg" xmlns:xlink="http://www.w3.org/1999/xlink" xml:space="preserve" overflow="hidden"><g transform="translate(-688 -291)"><path d="M699.476 310.406C695.763 310.406 692.768 307.411 692.768 303.698 692.768 299.984 695.763 296.99 699.476 296.99 703.19 296.99 706.184 299.984 706.184 303.698L706.184 303.698C706.184 307.411 703.19 310.406 699.476 310.406ZM705.154 297.852 705.873 297.133C706.136 296.846 706.136 296.391 705.849 296.127 705.561 295.864 705.13 295.84 704.843 296.103L704.028 296.942C702.878 296.175 701.56 295.696 700.195 295.6L700.195 294.594 702.351 294.594 702.351 293.156 696.601 293.156 696.601 294.594 698.757 294.594 698.757 295.576C694.253 295.959 690.947 299.936 691.33 304.417 691.714 308.897 695.691 312.227 700.171 311.844 704.651 311.46 707.981 307.483 707.598 303.003 707.43 301.039 706.568 299.218 705.154 297.852Z"/><path d="M703.549 299.625C702.591 298.667 701.321 298.068 699.955 297.972L699.955 303.698 698.997 303.698 698.997 297.972C695.834 298.235 693.486 301.015 693.75 304.177 694.014 307.34 696.793 309.688 699.955 309.448 703.118 309.208 705.466 306.405 705.202 303.243 705.106 301.877 704.507 300.607 703.549 299.625Z"/></g></svg>